<?xml version="1.0" encoding="UTF-8"?>
<svg version="1.1" xmlns="http://www.w3.org/2000/svg" width="515" height="515">
<path d="M0 0 C1.27109619 0.00273422 1.27109619 0.00273422 2.56787109 0.00552368 C16.51368777 0.05577445 30.13301133 0.77377992 43.875 3.3125 C44.83744629 3.48942383 45.79989258 3.66634766 46.79150391 3.84863281 C73.13156298 8.84974585 98.21802156 17.69743868 121.875 30.3125 C122.52388184 30.65361816 123.17276367 30.99473633 123.84130859 31.34619141 C138.97527395 39.34732995 152.91460799 49.13545793 165.875 60.3125 C166.60847656 60.93511719 167.34195312 61.55773438 168.09765625 62.19921875 C181.34040636 73.7610709 194.25772738 86.2698866 204.5859375 100.53613281 C205.96307885 102.43387532 207.37187968 104.30578131 208.78125 106.1796875 C216.98389939 117.26076215 223.59847911 129.05482391 229.875 141.3125 C230.45507812 142.44171875 230.45507812 142.44171875 231.046875 143.59375 C261.19176305 203.00976122 264.5665417 274.20616948 244.31640625 337.23828125 C233.50656105 369.79820922 216.74183543 399.69879042 193.875 425.3125 C192.77478516 426.57707031 192.77478516 426.57707031 191.65234375 427.8671875 C182.20575474 438.59960986 172.16559945 448.52739874 160.875 457.3125 C159.43640625 458.47652344 159.43640625 458.47652344 157.96875 459.6640625 C104.79820586 501.95881352 35.7438055 519.10246114 -31.28076172 511.78857422 C-91.51958707 504.44512849 -152.94497891 474.63716442 -192.125 427.3125 C-192.93066406 426.3946875 -193.73632812 425.476875 -194.56640625 424.53125 C-205.94338303 411.52398543 -215.61682119 397.33741687 -224.125 382.3125 C-224.48658203 381.68504883 -224.84816406 381.05759766 -225.22070312 380.41113281 C-246.65394975 342.96910322 -256.62549998 299.61896836 -256.4375 256.6875 C-256.43567719 255.81642609 -256.43385437 254.94535217 -256.43197632 254.04788208 C-256.38252148 239.95035486 -255.67253903 226.20632755 -253.125 212.3125 C-252.96402832 211.39404297 -252.80305664 210.47558594 -252.63720703 209.52929688 C-248.57939479 186.96770491 -241.26069618 164.87308387 -231.125 144.3125 C-230.5669165 143.16974609 -230.5669165 143.16974609 -229.99755859 142.00390625 C-221.56008546 124.89721914 -211.17881027 109.08887148 -199.125 94.3125 C-198.67189453 93.75643066 -198.21878906 93.20036133 -197.75195312 92.62744141 C-187.06184133 79.6167395 -175.46344556 67.62733419 -162.125 57.3125 C-160.84851588 56.29612835 -159.57250814 55.27915824 -158.296875 54.26171875 C-148.37688191 46.42610031 -138.12298458 39.54176567 -127.125 33.3125 C-126.31047363 32.85101563 -125.49594727 32.38953125 -124.65673828 31.9140625 C-86.39957293 10.51310618 -43.75390901 -0.19722111 0 0 Z " fill="#3E579A" transform="translate(257.125,0.6875)"/>
<path d="M0 0 C4.47777363 3.84853988 8.77777883 7.87434382 13 12 C13.57008789 12.54744873 14.14017578 13.09489746 14.72753906 13.65893555 C18.83165067 17.66027589 22.4523604 21.84227341 25.875 26.4375 C26.38748291 27.12416748 26.89996582 27.81083496 27.42797852 28.51831055 C51.00072653 60.77440307 60.57680716 101.06946723 54.8125 140.5625 C53.39174865 149.3373185 50.98050186 157.64027407 48 166 C47.46439453 167.58941406 47.46439453 167.58941406 46.91796875 169.2109375 C33.72098848 206.23709415 5.9064756 235.63899831 -29.1875 252.75 C-64.5621381 269.44713029 -105.2126849 272.40073136 -142.37866211 259.55517578 C-162.59904202 252.13613868 -180.12817402 241.51052893 -196 227 C-196.76739502 226.30052246 -196.76739502 226.30052246 -197.55029297 225.58691406 C-224.08747464 201.06127264 -241.54233465 164.39397181 -243.16845703 128.25634766 C-243.65902531 113.07805167 -243.94763705 97.76788137 -240 83 C-239.80664062 82.23397461 -239.61328125 81.46794922 -239.4140625 80.67871094 C-233.44697488 57.40891091 -222.52880653 37.26363683 -207 19 C-206.34257812 18.22011719 -205.68515625 17.44023437 -205.0078125 16.63671875 C-200.67864744 11.62533119 -196.13913426 7.17228018 -191 3 C-190.05382812 2.22785156 -189.10765625 1.45570313 -188.1328125 0.66015625 C-170.33431616 -13.59141752 -150.18428488 -23.640875 -128 -29 C-127.02933594 -29.24556641 -127.02933594 -29.24556641 -126.0390625 -29.49609375 C-83.16095502 -39.91426846 -33.81920662 -28.00095805 0 0 Z " fill="#FDFEFE" transform="translate(351,140)"/>
<path d="M0 0 C1.27109619 0.00273422 1.27109619 0.00273422 2.56787109 0.00552368 C16.51368777 0.05577445 30.13301133 0.77377992 43.875 3.3125 C44.83744629 3.48942383 45.79989258 3.66634766 46.79150391 3.84863281 C73.13156298 8.84974585 98.21802156 17.69743868 121.875 30.3125 C122.52388184 30.65361816 123.17276367 30.99473633 123.84130859 31.34619141 C138.97527395 39.34732995 152.91460799 49.13545793 165.875 60.3125 C166.60847656 60.93511719 167.34195312 61.55773438 168.09765625 62.19921875 C181.34040636 73.7610709 194.25772738 86.2698866 204.5859375 100.53613281 C205.96307885 102.43387532 207.37187968 104.30578131 208.78125 106.1796875 C216.98389939 117.26076215 223.59847911 129.05482391 229.875 141.3125 C230.45507812 142.44171875 230.45507812 142.44171875 231.046875 143.59375 C261.19176305 203.00976122 264.5665417 274.20616948 244.31640625 337.23828125 C233.50656105 369.79820922 216.74183543 399.69879042 193.875 425.3125 C192.77478516 426.57707031 192.77478516 426.57707031 191.65234375 427.8671875 C182.20575474 438.59960986 172.16559945 448.52739874 160.875 457.3125 C159.43640625 458.47652344 159.43640625 458.47652344 157.96875 459.6640625 C104.79820586 501.95881352 35.7438055 519.10246114 -31.28076172 511.78857422 C-91.51958707 504.44512849 -152.94497891 474.63716442 -192.125 427.3125 C-192.93066406 426.3946875 -193.73632812 425.476875 -194.56640625 424.53125 C-205.94338303 411.52398543 -215.61682119 397.33741687 -224.125 382.3125 C-224.48658203 381.68504883 -224.84816406 381.05759766 -225.22070312 380.41113281 C-246.65394975 342.96910322 -256.62549998 299.61896836 -256.4375 256.6875 C-256.43567719 255.81642609 -256.43385437 254.94535217 -256.43197632 254.04788208 C-256.38252148 239.95035486 -255.67253903 226.20632755 -253.125 212.3125 C-252.96402832 211.39404297 -252.80305664 210.47558594 -252.63720703 209.52929688 C-248.57939479 186.96770491 -241.26069618 164.87308387 -231.125 144.3125 C-230.5669165 143.16974609 -230.5669165 143.16974609 -229.99755859 142.00390625 C-221.56008546 124.89721914 -211.17881027 109.08887148 -199.125 94.3125 C-198.67189453 93.75643066 -198.21878906 93.20036133 -197.75195312 92.62744141 C-187.06184133 79.6167395 -175.46344556 67.62733419 -162.125 57.3125 C-160.84851588 56.29612835 -159.57250814 55.27915824 -158.296875 54.26171875 C-148.37688191 46.42610031 -138.12298458 39.54176567 -127.125 33.3125 C-126.31047363 32.85101563 -125.49594727 32.38953125 -124.65673828 31.9140625 C-86.39957293 10.51310618 -43.75390901 -0.19722111 0 0 Z M-61.125 40.3125 C-61.86556641 40.52213379 -62.60613281 40.73176758 -63.36914062 40.94775391 C-95.13670018 50.20023369 -125.0581929 66.55269178 -149.125 89.3125 C-150.45344855 90.46399305 -151.78665404 91.61002548 -153.125 92.75 C-161.64182827 100.20436679 -169.24767831 108.32912919 -176.125 117.3125 C-176.60839844 117.94124023 -177.09179688 118.56998047 -177.58984375 119.21777344 C-213.69080071 166.59465274 -230.18736784 225.54992142 -222.9375 284.875 C-216.64587951 330.52441319 -197.59096714 372.98246615 -166.30859375 406.94140625 C-164.80208266 408.57727786 -163.31619007 410.23229585 -161.84765625 411.90234375 C-157.23277758 417.14831694 -152.53073313 421.89122559 -147.125 426.3125 C-146.60695801 426.74288574 -146.08891602 427.17327148 -145.55517578 427.61669922 C-105.43004996 460.89091897 -56.46737971 480.81990967 -4.01733398 480.57324219 C-1.32577787 480.56255273 1.36510496 480.57318954 4.05664062 480.5859375 C20.47775936 480.60195993 36.42385172 479.51550874 52.3125 475.125 C53.46153809 474.81457764 54.61057617 474.50415527 55.79443359 474.18432617 C89.27958689 464.96320228 119.52386847 450.07307932 145.875 427.3125 C146.78507812 426.53261719 147.69515625 425.75273437 148.6328125 424.94921875 C151.09566132 422.78333724 153.49495399 420.56905306 155.875 418.3125 C156.37064453 417.84408691 156.86628906 417.37567383 157.37695312 416.89306641 C165.72233145 408.95076073 173.00706378 400.55144802 179.875 391.3125 C180.51066895 390.475979 180.51066895 390.475979 181.15917969 389.62255859 C216.77655804 342.71219901 229.71769583 282.57613771 222.8125 224.625 C216.54601478 179.90367443 196.29985553 138.81202143 165.96484375 105.625 C164.19143159 103.66264486 162.49349755 101.66588591 160.8125 99.625 C157.51465932 95.76258333 153.75016541 92.58017248 149.875 89.3125 C148.94945312 88.49910156 148.02390625 87.68570313 147.0703125 86.84765625 C120.68431891 63.77781995 90.31490105 49.14891916 56.875 39.3125 C56.17874512 39.10109375 55.48249023 38.8896875 54.76513672 38.671875 C17.98481016 27.62751623 -24.50027313 29.89649967 -61.125 40.3125 Z " fill="#FEFEFE" transform="translate(257.125,0.6875)"/>
<path d="M0 0 C2.5398233 1.77308419 4.73844634 3.63228219 6.875 5.875 C10.10659111 4.37834145 12.86869064 2.52442968 15.75 0.4375 C28.29287022 -8.38828605 41.85911244 -9.86643298 56.83984375 -7.6953125 C71.46523593 -3.85525815 81.81687463 5.80086487 89.33203125 18.45703125 C93.14661553 26.90705973 94.322017 35.07718666 94.29492188 44.27807617 C94.30339142 45.35923203 94.31186096 46.44038788 94.32058716 47.55430603 C94.34379619 51.09231647 94.34498355 54.62988828 94.34375 58.16796875 C94.35085835 60.64415152 94.35855832 63.12033265 94.36682129 65.59651184 C94.38022695 70.77003572 94.38185112 75.94340704 94.37597656 81.11694336 C94.37006673 87.73789354 94.40074457 94.35811394 94.44109344 100.97892284 C94.46696269 106.08596219 94.46984884 111.19282521 94.46620178 116.29992104 C94.46789193 118.74111079 94.47752423 121.18230878 94.49534607 123.62343407 C94.51753253 127.03615529 94.50783566 130.44739038 94.49023438 133.86010742 C94.50349762 134.86134644 94.51676086 135.86258545 94.53042603 136.89416504 C94.4525703 143.4058906 93.17421687 147.88121331 88.875 152.875 C84.46486734 156.65496384 80.14089769 157.58377387 74.37109375 157.3203125 C68.63513219 156.29699541 65.08279998 153.60725262 61.79432678 148.89085388 C59.23810554 144.29493413 59.3218361 140.00289567 59.37670898 134.84399414 C59.36843079 133.36944008 59.36843079 133.36944008 59.35998535 131.86509705 C59.35069056 129.73989416 59.35053925 127.61463557 59.35857964 125.48942757 C59.37123833 122.12169312 59.35989264 118.7547748 59.34254456 115.3870697 C59.31586481 109.45044121 59.31024801 103.5140135 59.31164551 97.57733154 C59.31387525 88.07944345 59.29968505 78.58180404 59.25605965 69.08401299 C59.24624495 65.77365335 59.25492666 62.46368694 59.26475525 59.15333557 C59.25860867 57.11402125 59.25169614 55.07470905 59.24389648 53.03540039 C59.25161575 52.12138458 59.25933502 51.20736877 59.26728821 50.26565552 C59.22167232 44.46621709 58.32446112 40.15704268 55.875 34.875 C52.02909409 31.12770706 48.06244259 28.60375274 42.625 28.4375 C37.47767756 28.55641504 33.65454535 30.41184193 29.875 33.875 C26.1002727 38.57813613 26.45896675 43.1107568 26.50610352 48.86254883 C26.50233704 49.86479996 26.49857056 50.86705109 26.49468994 51.89967346 C26.48826132 54.07294086 26.48858388 56.24623637 26.49487495 58.41950417 C26.50398715 61.86259857 26.49375871 65.30514862 26.47825623 68.74821472 C26.43816401 78.53631745 26.43695205 88.32437765 26.43920898 98.11254883 C26.43926015 104.10307235 26.42005864 110.09330279 26.38987541 116.08374596 C26.37906597 119.469502 26.39117274 122.85469488 26.40370178 126.24043274 C26.39479436 128.32671663 26.38471893 130.41299597 26.37329102 132.49926758 C26.38790627 133.90305664 26.38790627 133.90305664 26.40281677 135.33520508 C26.33745524 141.33296734 25.27055356 145.86261865 21.875 150.875 C17.82140922 154.82465256 14.12693894 156.66648713 8.5 157.1875 C2.44372554 156.66540737 -1.52118457 154.87057018 -5.5 150.3125 C-8.17306743 146.98903382 -9.24924851 144.97848723 -9.25630188 140.68865967 C-9.26031006 139.81109512 -9.26431824 138.93353058 -9.26844788 138.02937317 C-9.26791916 137.06416245 -9.26739044 136.09895172 -9.2668457 135.10449219 C-9.27032013 134.08971298 -9.27379456 133.07493378 -9.27737427 132.02940369 C-9.28473961 129.82006125 -9.29008083 127.61071137 -9.29366493 125.40135956 C-9.30081663 121.90457622 -9.31647387 118.40793434 -9.33500671 114.91119385 C-9.38753495 104.96702016 -9.43545498 95.0229227 -9.45092773 85.07861328 C-9.46100592 79.00074345 -9.49032875 72.92322729 -9.53224754 66.84549713 C-9.54456675 64.5282992 -9.54967713 62.21105132 -9.54744911 59.89382172 C-9.54509781 56.64985903 -9.56725157 53.40691151 -9.5949707 50.16308594 C-9.58836929 49.20597214 -9.58176788 48.24885834 -9.57496643 47.26274109 C-9.65400876 41.62765482 -10.33184016 38.32782682 -14.125 33.875 C-19.11838118 29.47606896 -22.03515227 28.51823663 -28.5859375 28.59375 C-33.56102713 29.14483685 -36.25019403 31.88197701 -39.4375 35.5 C-41.68071632 38.65711926 -42.250039 40.25228935 -42.25630188 44.06134033 C-42.26031006 44.93890488 -42.26431824 45.81646942 -42.26844788 46.72062683 C-42.2676548 48.16844292 -42.2676548 48.16844292 -42.2668457 49.64550781 C-42.27032013 50.66028702 -42.27379456 51.67506622 -42.27737427 52.72059631 C-42.28473961 54.92993875 -42.29008083 57.13928863 -42.29366493 59.34864044 C-42.30081663 62.84542378 -42.31647387 66.34206566 -42.33500671 69.83880615 C-42.38753495 79.78297984 -42.43545498 89.7270773 -42.45092773 99.67138672 C-42.46100592 105.74925655 -42.49032875 111.82677271 -42.53224754 117.90450287 C-42.54456675 120.2217008 -42.54967713 122.53894868 -42.54744911 124.85617828 C-42.54509781 128.10014097 -42.56725157 131.34308849 -42.5949707 134.58691406 C-42.58506859 136.02258476 -42.58506859 136.02258476 -42.57496643 137.48725891 C-42.66942325 144.22127448 -43.95110804 147.67832891 -48.7578125 152.51953125 C-54.39604573 156.93270334 -58.01709454 157.64227015 -65.125 156.875 C-69.98465186 155.19105284 -73.29172359 152.12491462 -76.125 147.875 C-77.08064672 145.00805985 -77.25686077 143.19955778 -77.27217102 140.22241211 C-77.27932632 139.26655716 -77.28648163 138.31070221 -77.29385376 137.32588196 C-77.29654266 136.27861435 -77.29923157 135.23134674 -77.30200195 134.15234375 C-77.30857315 133.04791428 -77.31514435 131.9434848 -77.32191467 130.80558777 C-77.34166446 127.1412245 -77.35331633 123.47690233 -77.36328125 119.8125 C-77.36735678 118.56023621 -77.3714323 117.30797241 -77.37563133 116.01776123 C-77.39435011 110.06917118 -77.40891109 104.12059417 -77.4172433 98.17198181 C-77.42699199 91.32637397 -77.45324806 84.48109152 -77.49374419 77.63559818 C-77.52768955 71.69132738 -77.53940062 65.74713505 -77.54344749 59.80276489 C-77.54830673 57.28310953 -77.55990166 54.76345748 -77.57848549 52.24386597 C-77.60294604 48.70658855 -77.60189832 45.17014937 -77.5949707 41.6328125 C-77.60778076 40.60173874 -77.62059082 39.57066498 -77.63378906 38.50834656 C-77.53630448 24.77235128 -71.49156507 14.32354273 -62.1875 4.5625 C-44.848127 -11.9148774 -19.71438488 -12.61720633 0 0 Z " fill="#3F569C" transform="translate(249.125,183.125)"/>
</svg>
