<?xml version="1.0" encoding="UTF-8"?>
<svg version="1.1" xmlns="http://www.w3.org/2000/svg" width="627" height="206">
<path d="M0 0 C20.00467847 17.12541502 33.24126023 41.9186957 35.49609375 68.28076172 C37.12188826 97.39956375 29.36055405 124.73086964 9.98242188 147.02197266 C-7.56680735 166.31297932 -32.09168385 179.60945613 -58.37329102 181.4855957 C-61.31604106 181.58321542 -64.2471126 181.61003422 -67.19140625 181.59326172 C-68.76341797 181.58480225 -68.76341797 181.58480225 -70.3671875 181.57617188 C-99.28458275 181.12766805 -123.45745134 168.79452972 -143.67456055 148.54492188 C-163.78720891 127.60776506 -171.00677396 100.74801704 -170.72265625 72.32763672 C-170.54153053 65.03279853 -169.47183207 58.32610653 -167.50390625 51.28076172 C-167.23707031 50.28689453 -166.97023437 49.29302734 -166.6953125 48.26904297 C-159.67586226 24.90207305 -144.15709213 4.28586735 -123.50390625 -8.71923828 C-122.78589844 -9.21681641 -122.06789062 -9.71439453 -121.328125 -10.22705078 C-84.02761302 -34.83636957 -33.19147291 -27.73888369 0 0 Z " fill="#FDFDFE" transform="translate(373.50390625,24.71923828125)"/>
<path d="M0 0 C13.31584308 9.54439933 22.10993379 23.90999873 25 40 C26.74504205 56.87438718 22.32863563 73.04715545 12.0625 86.46484375 C1.93678953 98.91102954 -11.9027293 106.98274709 -28 109 C-45.58663481 110.08912155 -60.75913346 106.45709631 -74.3125 94.5625 C-75.88990614 93.05713288 -77.45409386 91.53769779 -79 90 C-79.55300781 89.48179687 -80.10601562 88.96359375 -80.67578125 88.4296875 C-84.4632134 84.52995952 -86.80399678 79.86491127 -89.25 75.0625 C-89.76264404 74.05981079 -89.76264404 74.05981079 -90.28564453 73.03686523 C-96.40322334 60.54109327 -97.21968422 45.29777768 -93.375 31.9375 C-87.41884389 15.70853109 -76.38973971 1.75215511 -60.5625 -5.8125 C-39.58231941 -14.49800134 -19.10183838 -11.91270228 0 0 Z " fill="#40589B" transform="translate(341,54)"/>
<path d="M0 0 C20.00467847 17.12541502 33.24126023 41.9186957 35.49609375 68.28076172 C37.12188826 97.39956375 29.36055405 124.73086964 9.98242188 147.02197266 C-7.56680735 166.31297932 -32.09168385 179.60945613 -58.37329102 181.4855957 C-61.31604106 181.58321542 -64.2471126 181.61003422 -67.19140625 181.59326172 C-68.76341797 181.58480225 -68.76341797 181.58480225 -70.3671875 181.57617188 C-99.28458275 181.12766805 -123.45745134 168.79452972 -143.67456055 148.54492188 C-163.78720891 127.60776506 -171.00677396 100.74801704 -170.72265625 72.32763672 C-170.54153053 65.03279853 -169.47183207 58.32610653 -167.50390625 51.28076172 C-167.23707031 50.28689453 -166.97023437 49.29302734 -166.6953125 48.26904297 C-159.67586226 24.90207305 -144.15709213 4.28586735 -123.50390625 -8.71923828 C-122.78589844 -9.21681641 -122.06789062 -9.71439453 -121.328125 -10.22705078 C-84.02761302 -34.83636957 -33.19147291 -27.73888369 0 0 Z M-97.50390625 -6.71923828 C-98.53902344 -6.35701172 -99.57414062 -5.99478516 -100.640625 -5.62158203 C-122.290315 2.55595773 -140.23489748 20.81930158 -150.04296875 41.53076172 C-159.54192228 63.75053606 -160.63902343 87.7846263 -151.89013672 110.42602539 C-142.34633074 133.82931783 -125.365848 151.35012255 -102.31640625 161.65576172 C-93.19337668 165.33555354 -84.3472129 167.83032777 -74.50390625 168.28076172 C-73.24707031 168.34521484 -71.99023438 168.40966797 -70.6953125 168.47607422 C-47.83312714 169.27816235 -25.62499483 161.01891264 -8.37890625 145.96826172 C-6.73623083 144.42435476 -5.11095344 142.86172048 -3.50390625 141.28076172 C-2.73046875 140.52021484 -1.95703125 139.75966797 -1.16015625 138.97607422 C14.37486117 122.74942931 21.92716986 101.23886439 21.80859375 79.03076172 C21.8036792 77.93610596 21.79876465 76.8414502 21.79370117 75.71362305 C21.60494184 62.61372509 19.24650612 51.14098723 13.49609375 39.28076172 C13.04234375 38.34490234 12.58859375 37.40904297 12.12109375 36.44482422 C1.37270478 15.590613 -17.00357725 0.73003842 -39 -6.93798828 C-57.29354504 -12.75205481 -79.39930143 -13.66503007 -97.50390625 -6.71923828 Z " fill="#3F589B" transform="translate(373.50390625,24.71923828125)"/>
<path d="M0 0 C1.32730093 0.70473952 2.63660755 1.44529423 3.91796875 2.23046875 C5.97397918 3.39836931 5.97397918 3.39836931 9.70703125 3.10546875 C10.73828125 2.44546875 11.76953125 1.78546875 12.83203125 1.10546875 C17.3494209 -1.6030304 21.57340097 -1.67626145 26.70703125 -0.89453125 C32.90572432 0.9595911 37.13673012 4.78090201 40.70703125 10.10546875 C41.66039178 12.96555033 41.8489468 14.81634485 41.8840332 17.78881836 C41.90328606 19.21060646 41.90328606 19.21060646 41.92292786 20.66111755 C41.93031479 21.68302689 41.93770172 22.70493622 41.9453125 23.7578125 C41.95338425 24.80949112 41.96145599 25.86116974 41.96977234 26.94471741 C41.98360409 29.16975255 41.99433031 31.39480882 42.00219727 33.61987305 C42.01944676 37.02628474 42.06334598 40.43173507 42.10742188 43.83789062 C42.1175457 45.99869078 42.12606277 48.15949918 42.1328125 50.3203125 C42.15032059 51.3401976 42.16782867 52.3600827 42.18586731 53.41087341 C42.1642147 60.44946239 42.1642147 60.44946239 39.86791992 63.74438477 C36.87128536 65.63188196 35.1794609 65.75654931 31.70703125 65.10546875 C28.44691878 62.1975312 27.4478877 59.8645325 27.19287109 55.62231445 C27.16522583 53.84215493 27.15808128 52.06159671 27.16796875 50.28125 C27.15617584 49.33863815 27.14438293 48.39602631 27.13223267 47.42485046 C27.09699756 44.42238743 27.08780235 41.42062164 27.08203125 38.41796875 C27.06570889 35.40481283 27.04373989 32.39196894 27.01040649 29.37895203 C26.99071622 27.50599733 26.98144808 25.632899 26.98348999 23.75984192 C26.97653107 22.91523911 26.96957214 22.07063629 26.96240234 21.20043945 C26.96114349 20.45607132 26.95988464 19.71170319 26.95858765 18.94477844 C26.86193608 16.85719481 26.86193608 16.85719481 24.70703125 15.10546875 C21.20703125 14.77213542 21.20703125 14.77213542 17.70703125 15.10546875 C15.30605309 17.50644691 15.45704473 18.03527754 15.45166016 21.30810547 C15.44122177 22.60988235 15.44122177 22.60988235 15.43057251 23.93795776 C15.43156952 24.87753326 15.43256653 25.81710876 15.43359375 26.78515625 C15.41330357 28.76563064 15.39245277 30.74609935 15.37109375 32.7265625 C15.3484843 35.85600568 15.33202236 38.98522498 15.32617188 42.11474609 C15.3166606 45.13029702 15.28289627 48.14483229 15.24609375 51.16015625 C15.25113922 52.09568329 15.25618469 53.03121033 15.26138306 53.99508667 C15.16321108 60.46541744 15.16321108 60.46541744 12.86083984 63.69580078 C9.90096186 65.63304126 8.1764072 65.68369807 4.70703125 65.10546875 C2.55322266 63.67993164 2.55322266 63.67993164 0.70703125 61.10546875 C0.10989668 57.87890809 0.14982713 54.68793733 0.16796875 51.4140625 C0.15617584 50.47240738 0.14438293 49.53075226 0.13223267 48.56056213 C0.09694361 45.55452936 0.08779905 42.54919184 0.08203125 39.54296875 C0.06569961 36.53338367 0.043689 33.52411022 0.01040649 30.5146637 C-0.00925243 28.64278701 -0.01855527 26.77076725 -0.01651001 24.89878845 C-0.02346893 24.05103348 -0.03042786 23.2032785 -0.03759766 22.32983398 C-0.03885651 21.58467026 -0.04011536 20.83950653 -0.04141235 20.07176208 C-0.18596069 17.78429995 -0.18596069 17.78429995 -2.29296875 15.10546875 C-6.91414255 14.51111637 -6.91414255 14.51111637 -10.99256897 16.3581543 C-12.62083346 18.54601231 -12.66526736 19.72805291 -12.66186523 22.4375 C-12.66874863 23.30850342 -12.67563202 24.17950684 -12.682724 25.0769043 C-12.6765657 26.01445557 -12.67040741 26.95200684 -12.6640625 27.91796875 C-12.68144085 29.89974135 -12.69902527 31.88151214 -12.71679688 33.86328125 C-12.72688657 36.99059297 -12.73046204 40.11778983 -12.72875977 43.24511719 C-12.73232008 46.26141875 -12.7596242 49.27682569 -12.7890625 52.29296875 C-12.78087997 53.23052002 -12.77269745 54.16807129 -12.76426697 55.1340332 C-12.83864553 61.58948006 -12.83864553 61.58948006 -15.13305664 64.1953125 C-18.05653101 65.42722303 -20.15373139 65.50622246 -23.29296875 65.10546875 C-25.48828863 63.4887885 -26.20736975 62.59532736 -26.6806488 59.8868866 C-26.68605179 59.02340103 -26.69145477 58.15991547 -26.69702148 57.27026367 C-26.70970566 56.28881882 -26.72238983 55.30737396 -26.73545837 54.29618835 C-26.73252274 53.23680557 -26.7295871 52.17742279 -26.7265625 51.0859375 C-26.73180435 49.99461014 -26.7370462 48.90328278 -26.7424469 47.77888489 C-26.74887461 45.4680771 -26.74752048 43.15723662 -26.73901367 40.84643555 C-26.73052641 37.31694856 -26.75921989 33.7890917 -26.79101562 30.25976562 C-26.79262831 28.0143234 -26.79204883 25.76887832 -26.7890625 23.5234375 C-26.80029648 22.47012741 -26.81153046 21.41681732 -26.82310486 20.33158875 C-26.75369762 13.00016459 -25.62965248 9.52826045 -20.4765625 4.2421875 C-19.90035156 3.76394531 -19.32414062 3.28570312 -18.73046875 2.79296875 C-18.15167969 2.30183594 -17.57289063 1.81070313 -16.9765625 1.3046875 C-12.30989045 -2.01936893 -5.21276985 -2.03360187 0 0 Z " fill="#FBFBFC" transform="translate(298.29296875,70.89453125)"/>
<path d="M0 0 C0.66 0 1.32 0 2 0 C1.67 1.32 1.34 2.64 1 4 C0.34 4 -0.32 4 -1 4 C-1.66 5.98 -2.32 7.96 -3 10 C-4 7 -4 7 -3.22265625 5.17578125 C-2.1484375 3.45052083 -1.07421875 1.72526042 0 0 Z M-6 12 C-5.67 12.99 -5.34 13.98 -5 15 C-5.66 14.67 -6.32 14.34 -7 14 C-6.67 13.34 -6.34 12.68 -6 12 Z " fill="#374F9C" transform="translate(216,52)"/>
</svg>
